<?xml version="1.0" encoding="utf-8"?> <!-- Generator: IcoMoon.io --> <!DOCTYPE svg PUBLIC "-//W3C//DTD SVG 1.1//EN" "http://www.w3.org/Graphics/SVG/1.1/DTD/svg11.dtd"> <svg width="32" height="32" viewBox="0 0 32 32" xmlns="http://www.w3.org/2000/svg" xmlns:xlink="http://www.w3.org/1999/xlink" fill="#000000"><g><path d="M 23.927,7.073 C 23.712,7.38 21.912,9.799 17.66,11.393 C 15.7,7.793 13.528,4.835 13.198,4.393 C 14.097,4.176 15.035,4.060 16,4.060 C 19.038,4.060 21.815,5.2 23.927,7.073 ZM 16.836,16.123 C 10.669,18.116 7.387,23.55 7.116,24.014 C 5.206,21.894 4.042,19.090 4.042,16.018 C 4.042,15.896 4.044,15.774 4.048,15.653 C 4.571,15.664 10.366,15.738 16.338,13.951 C 16.68,14.621 17.007,15.301 17.307,15.98 C 17.149,16.025 16.992,16.072 16.836,16.123 ZM 16,0C 7.163,0,0,7.163,0,16s 7.163,16, 16,16s 16-7.163, 16-16S 24.837,0, 16,0z M 16,30 C 8.28,30, 2,23.72, 2,16C 2,8.28, 8.28,2, 16,2C 23.72,2, 30,8.28, 30,16 C 30,23.72, 23.72,30, 16,30zM 19.372,14.903 C 19.124,14.32 18.857,13.741 18.579,13.171 C 23,11.366 25.004,8.797 25.256,8.456 C 26.922,10.491 27.93,13.083 27.957,15.905 C 27.563,15.822 23.609,15.020 19.63,15.52 C 19.546,15.316 19.46,15.11 19.372,14.903 ZM 15.35,12.112 C 9.756,13.598 4.829,13.576 4.294,13.569 C 5.070,9.858 7.571,6.774 10.916,5.196 C 11.231,5.629 13.368,8.59 15.35,12.112 ZM 18.041,17.984 C 18.067,17.975 18.094,17.967 18.12,17.958 C 19.799,22.32 20.493,25.977 20.671,27.026 C 19.235,27.638 17.657,27.976 16,27.976 C 13.236,27.976 10.688,27.033 8.66,25.452 C 8.875,25.012 11.296,20.335 18.041,17.984 ZM 20.358,17.405 C 24.106,16.805 27.398,17.787 27.807,17.916 C 27.274,21.244 25.364,24.117 22.681,25.931 C 22.559,25.204 21.922,21.703 20.358,17.405 Z"></path></g></svg>