<svg id="Capa_1" enable-background="new 0 0 512 512" height="512" viewBox="0 0 512 512" width="512" xmlns="http://www.w3.org/2000/svg"><g><path d="m452 147.1 30 158.368-30 145.532h-392l-30-142.34 30-161.56c-9.924-7.451 54.209-11.824 96.698 20.075 52.311 39.273 88.285 118.054 99.302 126.325 1.702-1.278 8.371-51.331 63.402-92.646 42.025-31.551 138.263-58.007 132.598-53.754z" fill="#fff5f5"/><path d="m452 451 30-145.532-30-158.368c5.665-4.254-90.573 22.202-132.598 53.754-55.032 41.314-61.699 91.368-63.402 92.646v157.5z" fill="#e3e7ea"/><g><g><path d="m381.347 200.204c-.553.414-1.216.912-1.831 1.373-.399.301.395-.296 1.831-1.373z" fill="#00a66c"/></g></g><g id="Gmail_1_"><g><g><path d="m60 98.5v352.5h-15c-24.901 0-45-20.101-45-45v-300c0-1.201 0-2.401.3-3.6z" fill="#f03800"/></g></g></g><g><g><path d="m512 106v300c0 24.899-20.099 45-45 45h-15v-322.5l59.7-26.1c.3 1.199.3 2.399.3 3.6z" fill="#cd0000"/></g></g><g><g><path d="m511.7 102.4c-296.807 222.693 42.503-32.641-255.7 191.1-26.043-19.54 93.342 70.784-255.7-191.1 1.8-23.401 21.001-41.4 44.7-41.4l118.391 36.293 92.609 121.207 66.953-102.714 144.047-54.786c23.699 0 42.9 17.999 44.7 41.4z" fill="#ff641a"/></g></g><path d="m256 293.5c.081.06.073.055 0 0 20.933-15.706 220.772-164.894 255.7-191.1-1.8-23.401-21-41.4-44.7-41.4l-144.047 54.785-66.953 102.715z" fill="#f03800"/><path d="m467 61-211 157.5-211-157.5z" fill="#fff5f5"/><path d="m467 61h-211v157.5z" fill="#e3e7ea"/></g></svg>