<?xml version="1.0" encoding="utf-8"?> <!-- Generator: IcoMoon.io --> <!DOCTYPE svg PUBLIC "-//W3C//DTD SVG 1.1//EN" "http://www.w3.org/Graphics/SVG/1.1/DTD/svg11.dtd"> <svg width="32" height="32" viewBox="0 0 32 32" xmlns="http://www.w3.org/2000/svg" xmlns:xlink="http://www.w3.org/1999/xlink" fill="#000000"><g><path d="M 26.668,0L 5.334,0 C 2.4,0,0,2.4,0,5.334l0,21.332 C0,29.602, 2.4,32, 5.334,32l 21.334,0 C 29.601,32, 32,29.601, 32,26.666L 32,5.334 C 32,2.4, 29.601,0, 26.668,0z M 9,21c-2.761,0-5-2.239-5-5 c0-2.761, 2.239-5, 5-5s 5,2.239, 5,5C 14,18.761, 11.761,21, 9,21z M 23,21c-2.761,0-5-2.239-5-5 c0-2.761, 2.239-5, 5-5s 5,2.239, 5,5C 28,18.761, 25.762,21, 23,21z"></path></g></svg>