<?xml version="1.0" encoding="utf-8"?> <!-- Generator: IcoMoon.io --> <!DOCTYPE svg PUBLIC "-//W3C//DTD SVG 1.1//EN" "http://www.w3.org/Graphics/SVG/1.1/DTD/svg11.dtd"> <svg width="32" height="32" viewBox="0 0 32 32" xmlns="http://www.w3.org/2000/svg" xmlns:xlink="http://www.w3.org/1999/xlink" fill="#000000"><g><path d="M 26.688,0L 5.313,0 C 2.391,0,0,2.391,0,5.313l0,21.375 c0,2.922, 2.391,5.313, 5.313,5.313l 21.375,0 c 2.922,0, 5.313-2.391, 5.313-5.313L 32,5.313 C 32,2.391, 29.609,0, 26.688,0z M 10.244,14l 11.512,0 c 0.218,0.627, 0.338,1.3, 0.338,2c0,3.36-2.734,6.094-6.094,6.094c-3.36,0-6.094-2.734-6.094-6.094 C 9.906,15.3, 10.025,14.627, 10.244,14z M 28,14.002L 28,22 l0,4 c0,1.1-0.9,2-2,2L 6,28 c-1.1,0-2-0.9-2-2l0-4 L 4,14.002 L 4,14 l 3.128,0 c-0.145,0.644-0.222,1.313-0.222,2c0,5.014, 4.079,9.094, 9.094,9.094c 5.014,0, 9.094-4.079, 9.094-9.094 c0-0.687-0.077-1.356-0.222-2L 28,14 L 28,14.002 z M 28,7c0,0.55-0.45,1-1,1l-2,0 c-0.55,0-1-0.45-1-1L 24,5 c0-0.55, 0.45-1, 1-1l 2,0 c 0.55,0, 1,0.45, 1,1L 28,7 z"></path></g></svg>