<?xml version="1.0" encoding="utf-8"?> <!-- Generator: IcoMoon.io --> <!DOCTYPE svg PUBLIC "-//W3C//DTD SVG 1.1//EN" "http://www.w3.org/Graphics/SVG/1.1/DTD/svg11.dtd"> <svg width="32.00006103515625" height="32" viewBox="0 0 32.00006103515625 32" xmlns="http://www.w3.org/2000/svg" xmlns:xlink="http://www.w3.org/1999/xlink" fill="#000000"><g><path d="M 25.612,25.426c-3.333-0.013-5.109-1.643-6.343-4.516l-0.353-0.784l-3.043-6.938 c-1.009-2.456-3.513-4.115-6.339-4.115c-3.823,0-6.925,3.102-6.925,6.927c0,3.826, 3.102,6.927, 6.925,6.927 c 2.667,0, 4.986-1.508, 6.143-3.719l 1.23,2.838c-1.747,2.13-4.402,3.487-7.374,3.487C 4.268,25.535,0,21.27,0,16.001 c0-5.266, 4.268-9.537, 9.534-9.537c 3.974,0, 7.182,2.122, 8.813,5.883c 0.124,0.292, 1.724,4.034, 3.12,7.219 c 0.865,1.971, 1.602,3.279, 3.992,3.36c 2.349,0.081, 3.961-1.349, 3.961-3.156c0-1.766-1.229-2.19-3.305-2.88 c-3.731-1.229-5.656-2.464-5.656-5.422c0-2.885, 1.964-4.81, 5.154-4.81c 2.078,0, 3.578,0.925, 4.617,2.768 l-2.039,1.042c-0.768-1.075-1.616-1.5-2.693-1.5c-1.497,0-2.566,1.042-2.566,2.427c0,1.966, 1.759,2.263, 4.219,3.070 C 30.461,15.543, 32,16.775, 32,19.85C 32,23.079, 29.229,25.431, 25.612,25.426z"></path></g></svg>