<?xml version="1.0" encoding="utf-8"?> <!-- Generator: IcoMoon.io --> <!DOCTYPE svg PUBLIC "-//W3C//DTD SVG 1.1//EN" "http://www.w3.org/Graphics/SVG/1.1/DTD/svg11.dtd"> <svg width="32" height="32" viewBox="0 0 32 32" xmlns="http://www.w3.org/2000/svg" xmlns:xlink="http://www.w3.org/1999/xlink" fill="#000000"><g><path d="M 8,20A2,2 2520 1 0 12,20A2,2 2520 1 0 8,20zM 20,20A2,2 2520 1 0 24,20A2,2 2520 1 0 20,20zM 20.097,24.274 C 20.612,23.869 21.359,23.957 21.765,24.472 C 22.171,24.987 22.082,25.734 21.567,26.14 C 20.133,27.27 17.948,28 16,28 C 14.052,28 11.867,27.27 10.433,26.14 C 9.918,25.734 9.829,24.987 10.235,24.472 C 10.641,23.957 11.388,23.869 11.903,24.274 C 12.729,24.925 14.363,25.625 16,25.625 C 17.637,25.625 19.271,24.925 20.097,24.274 ZM 32,16c0-2.209-1.791-4-4-4c-1.504,0-2.812,0.83-3.495,2.057c-2.056-1.125-4.561-1.851-7.29-2.019 l 2.387-5.36l 4.569,1.319C 24.581,9.163, 25.693,10, 27,10c 1.657,0, 3-1.343, 3-3s-1.343-3-3-3 c-1.143,0-2.136,0.639-2.642,1.579L 19.267,4.109c-0.57-0.164-1.173,0.116-1.414,0.658l-3.243,7.282 c-2.661,0.187-5.102,0.907-7.114,2.007C 6.813,12.83, 5.504,12, 4,12c-2.209,0-4,1.791-4,4 c0,1.635, 0.981,3.039, 2.387,3.659C 2.134,20.41, 2,21.194, 2,22c0,5.523, 6.268,10, 14,10 c 7.732,0, 14-4.477, 14-10c0-0.806-0.134-1.589-0.387-2.34C 31.019,19.040, 32,17.635, 32,16z M 27,5.875 c 0.621,0, 1.125,0.504, 1.125,1.125s-0.504,1.125-1.125,1.125s-1.125-0.504-1.125-1.125S 26.379,5.875, 27,5.875z M 2,16c0-1.103, 0.897-2, 2-2 c 0.797,0, 1.487,0.469, 1.808,1.145c-1.045,0.793-1.911,1.707-2.552,2.711C 2.521,17.56, 2,16.84, 2,16z M 16,29.625 c-6.42,0-11.625-3.414-11.625-7.625s 5.205-7.625, 11.625-7.625c 6.42,0, 11.625,3.414, 11.625,7.625S 22.42,29.625, 16,29.625z M 28.744,17.856 c-0.641-1.004-1.507-1.918-2.552-2.711C 26.513,14.469, 27.203,14, 28,14c 1.103,0, 2,0.897, 2,2 C 30,16.84, 29.48,17.56, 28.744,17.856z"></path></g></svg>