<?xml version="1.0" encoding="utf-8"?> <!-- Generator: IcoMoon.io --> <!DOCTYPE svg PUBLIC "-//W3C//DTD SVG 1.1//EN" "http://www.w3.org/Graphics/SVG/1.1/DTD/svg11.dtd"> <svg width="32" height="32" viewBox="0 0 32 32" xmlns="http://www.w3.org/2000/svg" xmlns:xlink="http://www.w3.org/1999/xlink" fill="#000000"><g><path d="M 27.874,16.069c-0.565,0-1.105,0.11-1.596,0.308C 25.95,12.803, 22.831,10, 19.028,10 c-0.931,0-1.834,0.176-2.635,0.474c-0.311,0.116-0.393,0.235-0.393,0.466l0,12.585 c0,0.243, 0.195,0.445, 0.441,0.469 C 16.452,23.994, 27.802,24, 27.875,24C 30.154,24, 32,22.224, 32,20.035S 30.152,16.069, 27.874,16.069zM 12.5,24L 13.5,24L 14,16.993L 13.5,10L 12.5,10L 12,16.993 zM 9.5,24L 8.5,24L 8,18.914L 8.5,14L 9.5,14L 10,19 zM 4.5,24L 5.5,24L 6,20L 5.5,16L 4.5,16L 4,20 zM 0.5,22L 1.5,22L 2,20L 1.5,18L 0.5,18L0,20 z"></path></g></svg>