<?xml version="1.0" encoding="utf-8"?> <!-- Generator: IcoMoon.io --> <!DOCTYPE svg PUBLIC "-//W3C//DTD SVG 1.1//EN" "http://www.w3.org/Graphics/SVG/1.1/DTD/svg11.dtd"> <svg width="32" height="32" viewBox="0 0 32 32" xmlns="http://www.w3.org/2000/svg" xmlns:xlink="http://www.w3.org/1999/xlink" fill="#000000"><g><path d="M 18.001,14 L 18.001,21.318 C 18.001,23.175 17.977,24.245 18.174,24.771 C 18.369,25.295 18.859,25.838 19.392,26.153 C 20.101,26.577 20.909,26.789 21.821,26.789 C 23.441,26.789 24.398,26.575 26,25.523 L 26,30.333 L 26,30.333 C 24.634,30.976 23.442,31.352 22.334,31.612 C 21.224,31.87 20.026,32 18.738,32 C 17.274,32 16.411,31.816 15.288,31.448 C 14.164,31.077 13.204,30.548 12.412,29.869 C 11.617,29.184 11.068,28.456 10.76,27.686 C 10.453,26.917 10.301,25.799 10.301,24.335 L 10.301,13.113 L 6.006,13.113 L 6.006,8.582 C 7.263,8.174 8.667,7.588 9.562,6.827 C 10.46,6.063 11.179,5.149 11.721,4.079 C 12.265,3.012 12.638,1.65 12.842,0 L 18.001,0 L 18.001,8 L 26,8 L 26,14 L 18.001,14 Z"></path></g></svg>