<?xml version="1.0" encoding="utf-8"?> <!-- Generator: IcoMoon.io --> <!DOCTYPE svg PUBLIC "-//W3C//DTD SVG 1.1//EN" "http://www.w3.org/Graphics/SVG/1.1/DTD/svg11.dtd"> <svg width="33.627628326416016" height="32.5681266784668" viewBox="0 0 33.627628326416016 32.5681266784668" xmlns="http://www.w3.org/2000/svg" xmlns:xlink="http://www.w3.org/1999/xlink" fill="#000000"><g><path d="M0,9.637l 1.3,1.704c0,0, 2.68-2.113, 3.574-1.056c 0.893,1.056, 4.304,13.811, 5.443,16.164 c 0.994,2.063, 3.735,4.791, 6.741,2.843c 3.004-1.948, 12.995-10.478, 14.783-20.55 c 1.787-10.070-12.023-7.96-13.485,0.813c 3.656-2.195, 5.607,0.892, 3.737,4.387 c-1.867,3.491-3.574,5.769-4.467,5.769c-0.892,0-1.578-2.337-2.6-6.42c-1.056-4.222-1.050-11.827-5.441-10.965 C 5.443,3.137,0,9.637,0,9.637z"></path></g></svg>